<?xml version="1.0" encoding="utf-8"?>
<!-- Generator: Adobe Illustrator 10.0, SVG Export Plug-In . SVG Version: 3.0.0 Build 76)  -->
<!DOCTYPE svg PUBLIC "-//W3C//DTD SVG 1.0//EN"    "http://www.w3.org/TR/2001/REC-SVG-20010904/DTD/svg10.dtd" [
	<!ENTITY ns_flows "http://ns.adobe.com/Flows/1.0/">
	<!ENTITY ns_svg "http://www.w3.org/2000/svg">
	<!ENTITY ns_xlink "http://www.w3.org/1999/xlink">
]>
<svg  xmlns="&ns_svg;" xmlns:xlink="&ns_xlink;" xmlns:a="http://ns.adobe.com/AdobeSVGViewerExtensions/3.0/"
	 width="32" height="32" viewBox="0 0 32 32" overflow="visible" enable-background="new 0 0 32 32" xml:space="preserve">
	<g id="Layer_1">
		<path fill="#F9ECE1" d="M0,0h32v32H0V0z"/>
		<path fill="#FFFFFF" stroke="#B4B4EF" stroke-width="0.75" d="M3.981,3.928h24.042v24.041H3.981V3.928z"/>
		<path stroke="#000000" stroke-width="0.5" d="M2.945,2.785c0,0.138-0.112,0.25-0.25,0.25s-0.25-0.112-0.25-0.25
			s0.112-0.25,0.25-0.25S2.945,2.647,2.945,2.785z"/>
		<path stroke="#000000" stroke-width="0.5" d="M29.514,2.785c0,0.138-0.111,0.25-0.25,0.25s-0.25-0.112-0.25-0.25
			s0.111-0.25,0.25-0.25S29.514,2.647,29.514,2.785z"/>
		<path stroke="#000000" stroke-width="0.5" d="M2.945,28.924c0,0.139-0.112,0.25-0.25,0.25s-0.25-0.111-0.25-0.25
			s0.112-0.25,0.25-0.25S2.945,28.785,2.945,28.924z"/>
		<path stroke="#000000" stroke-width="0.5" d="M29.514,28.924c0,0.139-0.111,0.25-0.25,0.25s-0.25-0.111-0.25-0.25
			s0.111-0.25,0.25-0.25S29.514,28.785,29.514,28.924z"/>
		<path stroke="#000000" stroke-width="0.5" d="M2.513,15.896c0.072,0.072,0.072,0.188,0,0.261c-0.072,0.072-0.188,0.072-0.261,0
			c-0.072-0.073-0.072-0.188,0-0.261C2.324,15.824,2.441,15.824,2.513,15.896z"/>
		<path stroke="#000000" stroke-width="0.5" d="M16.354,2.054c0.072,0.073,0.072,0.188,0,0.26c-0.072,0.073-0.188,0.073-0.26,0
			c-0.073-0.072-0.073-0.188,0-0.26C16.166,1.982,16.282,1.982,16.354,2.054z"/>
		<path stroke="#000000" stroke-width="0.5" d="M16.13,29.514c0.073,0.072,0.073,0.188,0,0.261c-0.071,0.072-0.188,0.072-0.26,0
			c-0.072-0.072-0.072-0.188,0-0.261C15.942,29.441,16.059,29.441,16.13,29.514z"/>
		<path stroke="#000000" stroke-width="0.5" d="M29.973,15.672c0.071,0.072,0.071,0.188,0,0.26c-0.072,0.072-0.188,0.072-0.261,0
			s-0.072-0.188,0-0.26C29.784,15.6,29.9,15.6,29.973,15.672z"/>
		<path fill="#FFFFCF" d="M7.593,7.657h16.685v16.684H7.593V7.657z"/>
		<path fill="#E0E0E0" d="M7.579,24.341H12.7L7.579,19.22V24.341z"/>
		<path fill="#E0E0E0" d="M7.579,14.705l9.636,9.636h4.752L7.579,9.953V14.705z"/>
		<path fill="#E0E0E0" d="M24.264,7.657h-5.011l5.011,5.011V7.657z"/>
		<path fill="#E0E0E0" d="M9.797,7.657l14.466,14.466v-4.94l-9.526-9.525H9.797z"/>
		<path fill="none" stroke="#25252B" stroke-width="0.25" d="M0.156,0.146h31.688v31.687H0.156V0.146z"/>
	</g>
</svg>