<?xml version="1.0" encoding="UTF-8" standalone="no"?>
<svg
   xmlns:dc="http://purl.org/dc/elements/1.1/"
   xmlns:cc="http://creativecommons.org/ns#"
   xmlns:rdf="http://www.w3.org/1999/02/22-rdf-syntax-ns#"
   xmlns:svg="http://www.w3.org/2000/svg"
   xmlns="http://www.w3.org/2000/svg"
   xmlns:sodipodi="http://sodipodi.sourceforge.net/DTD/sodipodi-0.dtd"
   xmlns:inkscape="http://www.inkscape.org/namespaces/inkscape"
   transform="scale(0.05) translate(30,-30)"
   id="svg4161"
   version="1.1"
   inkscape:version="0.48.1 r9760"
   width="100%"
   height="100%"
   sodipodi:docname="robot_shadow.svg">
  <metadata
     id="metadata4241">
    <rdf:RDF>
      <cc:Work
         rdf:about="">
        <dc:format>image/svg+xml</dc:format>
        <dc:type
           rdf:resource="http://purl.org/dc/dcmitype/StillImage" />
      </cc:Work>
    </rdf:RDF>
  </metadata>
  <defs
     id="defs4239">
    <filter
       inkscape:collect="always"
       id="filter4614"
       x="-0.13133524"
       width="1.2626705"
       y="-0.11046594"
       height="1.2209319">
      <feGaussianBlur
         inkscape:collect="always"
         stdDeviation="27.018575"
         id="feGaussianBlur4616" />
    </filter>
  </defs>
  <sodipodi:namedview
     pagecolor="#ffffff"
     bordercolor="#666666"
     borderopacity="1"
     objecttolerance="10"
     gridtolerance="10"
     guidetolerance="10"
     inkscape:pageopacity="0"
     inkscape:pageshadow="2"
     inkscape:window-width="930"
     inkscape:window-height="603"
     id="namedview4237"
     showgrid="false"
     inkscape:zoom="0.28507296"
     inkscape:cx="223.48688"
     inkscape:cy="734.94515"
     inkscape:window-x="0"
     inkscape:window-y="26"
     inkscape:window-maximized="0"
     inkscape:current-layer="svg4161" />
  <!-- width="600" height="700" -->
  <title
     id="title4163">Tux</title>
  <desc
     id="desc4165">The Linux Penguin in SVG.</desc>
  <!-- Body paint -->
  <g
     id="g4523"
     style="opacity:0.50000000000000000;filter:url(#filter4614)">
    <path
       id="path4167"
       d="M 228 235 L 347 235 L 456 435 L 332 607 L 205 607 L 149 435 z"
       style="fill:#000000;stroke:none;fill-opacity:1" />
    <g
       transform="translate(98.9154 -217.691)"
       style="fill-opacity:1;fill:#000000"
       id="g6">
      <path
         style="fill:#000000;fill-opacity:1"
         d="M329.336 727.552 C315.224 726.328 304.136 715.816 303.128 694.936 C306.368 639.496     309.608 582.112 271.232 545.104 C265.256 499.024 244.016 482.104 234.008 452.512     L218.24 441.208 L237.104 411.688 L245.168 411.904 L323.936 571.168 L340.424     651.448 z"
         id="path7" />
    </g>
    <g
       transform="translate(98.9154 -217.691)"
       style="fill-opacity:1;fill:#000000"
       id="g8">
      <path
         style="fill:#000000;fill-opacity:1"
         d="M136.232 439.696 C133.856 455.248 132.56 470.512 134.792 485.272 C118.376 507.592     105.92 530.128 104.48 553.312 C92.024 586.504 62.432 614.584 67.544 680.104     C84.176 697.456 107.432 713.584 127.376 730.36 C152.432 751.312 137.528 778.96     102.248 772.408 C94.4 763.768 76.616 709.624 42.92 676.288 L49.544 632.584     L81.368 547.408 L120.968 484.048 L125.36 456.688 L119.816 386.776 L124.424     361.216 L136.232 439.696 z"
         id="path9" />
    </g>
    <g
       transform="translate(98.9154 -217.691)"
       style="fill-opacity:1;fill:#000000"
       id="g10">
      <path
         style="fill:#000000;fill-opacity:1"
         d="M115.64 341.416 C116.576 336.376 117.8 331.624 119.312 327.16 L121.688 342.784 z"
         id="path11" />
    </g>
    <g
       transform="translate(98.9154 -217.691)"
       style="fill-opacity:1;fill:#000000"
       id="g12">
      <path
         style="fill:#000000;fill-opacity:1"
         d="M120.968 500.464 C108.368 523.792 103.976 546.256 132.92 550.216 C117.008 553.888     97.208 568.648 77.192 593.488 L77.624 543.016 L101.456 503.272 z"
         id="path13" />
    </g>
    <g
       transform="translate(98.9154 -217.691)"
       style="fill-opacity:1;fill:#000000"
       id="g14">
      <path
         style="fill:#000000;fill-opacity:1"
         d="M-33.256 818.488 C10.52 838.144 41.408 837.064 69.272 850.96 C91.304 862.552 113.552     861.184 126.944 847.144 C138.32 832.456 146.744 831.736 163.52 830.224 C190.952     828.568 217.736 828.28 241.928 830.8 L269.576 833.032 C269.072 864.064     328.04 867.88 345.392 844.336 C366.344 819.424 395.144 808.264 419.84 790.192     L289.304 725.536 C255.824 806.464 131.048 827.632 113.768 763.264 z"
         id="path15" />
    </g>
    <g
       transform="translate(98.9154 -217.691)"
       style="fill-opacity:1;fill:#000000"
       id="g16">
      <path
         style="fill:#000000;fill-opacity:1"
         d="M286.424 711.568 C273.824 711.496 260.936 715.6 261.944 732.16 L266.192 776.44 L304.424     756.64 z"
         id="path17" />
    </g>
    <g
       transform="translate(98.9154 -217.691)"
       style="fill:#000000;fill-opacity:1"
       id="g18">
      <path
         style="fill:#000000;fill-opacity:1"
         d="M-37.36 821.224 C7.136 840.88 38.6 839.728 66.968 853.696 C89.36 865.216 111.968     863.92 125.648 849.808 C137.24 835.192 145.808 834.472 162.872 832.96 C190.736     831.232 218.024 831.016 242.648 833.464 L270.728 835.768 C270.224 866.8 330.272     870.544 347.912 847 C369.224 822.088 398.528 811 423.656 792.856 L290.816     728.272 C256.76 809.128 129.824 830.296 112.256 766 z"
         id="path19" />
    </g>
    <g
       transform="translate(98.9154 -217.691)"
       style="fill:#000000;fill-opacity:1"
       id="g20">
      <path
         style="fill:#000000;fill-opacity:1"
         d="M382.328 691.984 C403.64 698.968 389.888 720.28 400.76 732.52 C405.44 742.888 415.304     752.032 431.792 760.528 C459.368 774.424 426.248 799.336 392.768 812.08     C351.944 825.616 344.024 862.912 299.312 851.896 C283.112 846.496 278.36 831.808     278.864 809.128 C284.264 762.76 277.784 730.432 278.792 698.824 C278.72     686.152 283.544 684.64 307.232 687.952 C310.04 726.328 352.376 727.336 382.328     691.984 z"
         id="path21" />
    </g>
    <g
       transform="translate(98.9154 -217.691)"
       style="fill:#000000;fill-opacity:1"
       id="g22">
      <path
         style="fill:#000000;fill-opacity:1"
         d="M339.632 826.624 C371.6 814.312 403.856 798.112 429.848 782.128 C437.84 777.448 438.92     765.928 427.688 762.328 C403.352 748.504 390.104 731.224 392.912 708.76     C393.344 700.912 383.696 692.56 381.104 700.048 C359.864 771.472 291.32 767.656     300.752 696.952 C301.256 694.864 301.76 692.776 302.264 690.76 C289.952     688.24 285.2 690.976 285.776 700.408 L295.28 806.608 C297.656 830.8 317.312     836.128 339.632 826.624 z"
         id="path23" />
    </g>
    <g
       transform="translate(98.9154 -217.691)"
       style="fill:#000000;fill-opacity:1"
       id="g24">
      <path
         style="fill:#000000;fill-opacity:1"
         d="M354.464 537.544 C379.16 569.8 404.432 651.088 384.416 691.552 C360.944 737.776 307.808     743.248 305.504 695.8 C308.816 639.64 311.984 581.536 273.68 544.096     C267.704 497.368 246.392 480.232 236.384 450.28 L203.12 426.088 L133.568 435.088     C130.76 452.152 129.104 468.784 131.552 484.912 C115.064 507.376 102.608     530.056 101.168 553.312 C88.712 586.648 59.12 614.944 64.232 680.752 C80.864     698.248 104.12 714.448 124.064 731.296 C149.12 752.392 135.512 776.296 100.232     769.672 C78.848 746.056 56.744 722.872 35.288 699.328 C12.392 683.056     3.896 662.176 27.368 630.496 C43.424 609.04 47.96 562.456 62 543.664 C74.312     525.16 92.24 508.6 105.272 490.096 C112.184 477.928 114.344 468.568 113.264     454.456 L110.312 369.136 C108.368 307.216 142.424 274.24 189.8 275.248 C243.512     275.752 287.576 312.472 288.152 378.28 C292.688 410.32 283.256 428.68 308.672     474.472 C334.52 522.712 338.552 520.12 354.464 537.544 z"
         id="path25" />
    </g>
    <g
       transform="translate(98.9154 -217.691)"
       style="fill-opacity:1;fill:#000000"
       id="g26">
      <path
         style="fill:#000000;fill-opacity:1"
         d="M261.296 503.632 L263.528 512.2 C257.696 501.688 250.712 483.616 241.928 475.696     C239.264 473.536 235.808 473.608 233.72 475.624 C222.056 486.928 193.112 510.112     169.928 507.088 C152.072 505.288 134.648 493.264 130.832 480.232 C128.816     470.872 129.752 463.168 130.976 455.32 L240.704 453.52 C238.472 463.168 253.088     487 261.296 503.632 z"
         id="path27" />
    </g>
    <g
       transform="translate(98.9154 -217.691)"
       style="fill-opacity:1;fill:#000000"
       id="g28">
      <path
         style="fill:#000000;fill-opacity:1"
         d="M143.144 363.232 C154.088 363.232 163.88 376.84 163.808 395.632 C163.736 408.232     155.528 411.472 149.336 417.016 C146.6 419.536 145.952 433.144 142.568 433.144     C131.696 433.144 123.488 413.776 123.488 395.632 C123.488 377.56 132.272     363.232 143.144 363.232 z"
         id="path29" />
    </g>
    <g
       transform="translate(98.9154 -217.691)"
       style="fill:#000000;fill-opacity:1"
       id="g30">
      <path
         style="fill:#000000;fill-opacity:1"
         d="M144.368 375.04 C154.088 375.04 160.856 379.936 161.648 391.312 C162.224 399.16 160.136     411.76 154.664 414.424 C152.144 415.648 143.432 426.664 140.408 426.52     C128.096 425.944 125 402.112 125.936 390.736 C126.8 379.36 134.72 375.04 144.368     375.04 z"
         id="path31" />
    </g>
    <g
       transform="translate(98.9154 -217.691)"
       style="fill:#000000;fill-opacity:1"
       id="g32">
      <path
         style="fill:#000000;fill-opacity:1"
         d="M141.848 382.672 C148.544 382.096 154.736 389.728 155.6 399.664 C156.464 409.6 151.64     418.24 144.944 418.816 C138.248 419.392 132.056 411.76 131.192 401.752     C130.328 391.816 135.152 383.248 141.848 382.672 z"
         id="path33" />
    </g>
    <g
       transform="translate(98.9154 -217.691)"
       style="fill-opacity:1;fill:#000000"
       id="g34">
      <path
         style="fill:#000000;fill-opacity:1"
         d="M151.064 397.288 C151.424 399.088 149.408 400.024 148.832 398.224 C148.256 395.992     146.888 393.328 145.088 391.168 C143.936 389.872 145.088 388.432 146.528 389.44     C149.048 391.528 150.488 394.12 151.064 397.288 z"
         id="path35" />
    </g>
    <g
       transform="translate(98.9154 -217.691)"
       style="fill-opacity:1;fill:#000000"
       id="g36">
      <path
         style="fill:#000000;fill-opacity:1"
         d="M216.944 360.712 C232.712 360.712 245.6 377.416 245.6 397.792 C245.6 418.24 232.712     434.872 216.944 434.872 C201.176 434.872 188.432 418.24 188.432 397.792 C188.432     377.416 201.176 360.712 216.944 360.712 z"
         id="path37" />
    </g>
    <g
       transform="translate(98.9154 -217.691)"
       style="fill:#000000;fill-opacity:1"
       id="g38">
      <path
         style="fill:#000000;fill-opacity:1"
         d="M224.792 374.968 C235.664 378.856 241.928 387.424 242.72 396.568 C243.656 407.08     239.408 418.96 230.264 425.944 C227.672 427.888 197.72 416.08 195.992 411.616     C193.4 405.208 191.816 392.896 193.76 385.624 C194.552 382.744 197.216 378.568     201.176 376.336 C207.44 372.808 216.656 372.088 224.792 374.968 z"
         id="path39" />
    </g>
    <g
       transform="translate(98.9154 -217.691)"
       style="fill:#000000;fill-opacity:1"
       id="g40">
      <path
         style="fill:#000000;fill-opacity:1"
         d="M216.872 380.944 C225.584 380.944 232.712 389.296 232.712 399.448 C232.712 409.672     225.584 418.024 216.872 418.024 C208.16 418.024 201.032 409.672 201.032 399.448     C201.032 389.296 208.16 380.944 216.872 380.944 z"
         id="path41" />
    </g>
    <g
       transform="translate(98.9154 -217.691)"
       style="fill-opacity:1;fill:#000000"
       id="g42">
      <path
         style="fill:#000000;fill-opacity:1"
         d="M227.096 392.392 C228.104 394.048 226.448 395.776 225.224 394.12 C223.784 392.104     221.408 389.944 218.888 388.432 C217.232 387.568 217.808 385.624 219.68 386.2     C222.92 387.28 225.368 389.368 227.096 392.392 z"
         id="path43" />
    </g>
    <g
       transform="translate(98.9154 -217.691)"
       style="fill:#000000;fill-opacity:1"
       id="g44">
      <path
         style="fill:#000000;fill-opacity:1"
         d="M164.96 404.488 C172.376 402.328 184.112 403.048 192.248 404.632 C200.384 406.792     222.056 418.24 245.024 430.696 C247.976 432.208 248.84 437.104 245.024 438.688     C239.12 439.12 249.272 453.664 238.904 458.848 C223.352 462.88 198.44 485.992     186.128 487.864 C179.288 489.376 172.232 489.592 164.6 487.864 C140.552     482.968 134.216 455.608 122.912 450.064 C119.816 446.824 121.4 441.208 122.408     440.056 C123.632 434.224 149.696 406.216 164.96 404.488 z"
         id="path45" />
    </g>
    <g
       transform="translate(98.9154 -217.691)"
       style="fill:#000000;fill-opacity:1"
       id="g46">
      <path
         style="fill:#000000;fill-opacity:1"
         d="M185.408 405.856 C198.44 407.296 226.088 423.928 239.408 430.624 C242.72 432.424     242.504 437.824 239.552 438.688 C236.384 440.488 235.448 438.256 232.928 437.896     C228.896 435.736 222.272 440.92 217.016 444.88 C186.704 467.776 180.656     465.256 156.176 462.664 C147.68 460.576 142.136 457.984 139.688 455.968 C141.488     445.888 160.496 407.656 166.76 406.792 C168.344 404.704 179.936 404.632     185.408 405.856 z"
         id="path47" />
    </g>
    <g
       transform="translate(98.9154 -217.691)"
       style="fill:#000000;fill-opacity:1"
       id="g48">
      <path
         style="fill:#000000;fill-opacity:1"
         d="M190.664 412.048 L193.76 413.416 C196.064 414.712 193.256 418.168 190.736 417.088     L186.2 415.504 C183.536 413.272 186.704 410.104 190.664 412.048 z"
         id="path49" />
    </g>
    <g
       transform="translate(98.9154 -217.691)"
       style="fill-opacity:1;fill:#000000"
       id="g50">
      <path
         style="fill:#000000;fill-opacity:1"
         d="M268.568 452.368 C273.032 454.384 279.224 457.192 282.536 460.144 C285.488 464.104     286.784 468.064 286.424 472.024 C285.776 474.544 284.12 476.344 281.24 477.424     C277.856 478.216 273.68 477.424 271.376 474.112 C269.864 471.448 265.256     462.16 263.96 460.576 C262.232 457.12 261.944 454.456 262.88 452.368 C264.032     451.288 266.048 451 268.568 452.368 z"
         id="path51" />
    </g>
    <g
       transform="translate(98.9154 -217.691)"
       style="fill:#000000;fill-opacity:1"
       id="g52">
      <path
         style="fill:#000000;fill-opacity:1"
         d="M273.752 461.584 C275.48 462.376 277.928 463.456 279.224 464.68 C280.376 466.264     280.88 467.776 280.736 469.36 C280.52 470.296 279.8 471.016 278.72 471.448 C277.352     471.808 275.768 471.448 274.832 470.152 C274.256 469.144 272.456 465.472     271.952 464.824 C271.232 463.456 271.088 462.448 271.448 461.584 C271.952     461.152 272.744 461.08 273.752 461.584 z"
         id="path53" />
    </g>
    <g
       transform="translate(98.9154 -217.691)"
       style="fill-opacity:1;fill:#000000"
       id="g54">
      <path
         style="fill:#000000;fill-opacity:1"
         d="M238.616 358.552 C239.048 359.2 238.976 359.776 238.4 360.28 C237.896 360.784 237.176     360.712 236.24 360.208 L231.632 356.248 C231.056 355.744 230.912 354.952     231.272 354.088 C232.28 353.44 233.144 353.44 233.936 354.088 z"
         id="path55" />
    </g>
    <g
       transform="translate(98.9154 -217.691)"
       style="fill-opacity:1;fill:#000000"
       id="g56">
      <path
         style="fill:#000000;fill-opacity:1"
         d="M235.592 305.992 C239.624 308.224 240.848 313.912 238.184 318.592 C235.592 323.2     230.12 325.144 226.016 322.84 C221.984 320.536 220.76 314.92 223.424 310.24     C226.016 305.56 231.488 303.688 235.592 305.992 z"
         id="path57" />
    </g>
    <g
       transform="translate(98.9154 -217.691)"
       style="fill-opacity:1;fill:#000000"
       id="g58">
      <path
         style="fill:#000000;fill-opacity:1"
         d="M374.912 680.536 C378.296 683.128 373.256 687.376 371.024 686.296 C369.152 685.648     367.784 683.488 366.92 682.408 C366.128 681.184 366.2 679.168 366.92 678.448     C367.712 677.44 369.728 677.656 371.024 678.52 C372.32 679.168 373.616 679.888     374.912 680.536 z"
         id="path59" />
    </g>
    <g
       transform="translate(98.9154 -217.691)"
       style="fill-opacity:1;fill:#000000"
       id="g60">
      <path
         style="fill:#000000;fill-opacity:1"
         d="M297.44 551.512 C338.984 572.896 350 611.56 332.072 664.192 C330.992 666.64 334.16     668.368 335.24 666.064 C354.824 610.336 341.432 571.312 299.024 548.56 C296.864     547.552 295.28 550.432 297.44 551.512 z"
         id="path61" />
    </g>
    <g
       transform="translate(98.9154 -217.691)"
       style="fill-opacity:1;fill:#000000"
       id="g62">
      <path
         style="fill:#000000;fill-opacity:1"
         d="M72.008 569.512 C38.312 627.256 38.096 662.68 62.504 681.328 C63.728 682.264 64.448     680.032 63.296 679.168 C36.296 655.48 48.896 615.52 74.168 570.88 C74.888     569.584 72.512 568.432 72.008 569.512 z"
         id="path63" />
    </g>
    <g
       transform="translate(98.9154 -217.691)"
       style="fill-opacity:1;fill:#000000"
       id="g64">
      <path
         style="fill:#000000;fill-opacity:1"
         d="M289.376 586.864 C289.232 589.168 288.368 589.528 286.424 587.368 C279.8 575.848     235.088 551.44 213.344 548.704 C209.24 547.264 209.456 545.392 213.488 544.816     C229.184 544.816 241.28 537.904 254.96 537.904 C258.704 538.048 262.304 539.488     264.392 541.648 C269.504 544.96 288.08 570.592 289.376 586.864 z"
         id="path65" />
    </g>
    <g
       transform="translate(98.9154 -217.691)"
       style="fill-opacity:1;fill:#000000"
       id="g66">
      <path
         style="fill:#000000;fill-opacity:1"
         d="M180.152 546.832 C180.872 550.792 163.808 545.68 164.744 556.696 C165.032 559.72     160.496 561.376 160.64 556.696 C160.64 548.272 161.072 548.416 152.72 546.832     C151.208 546.76 151.352 544.528 152.72 544.816 L152.72 544.816 C158.696 546.472     166.76 542.872 166.4 538.84 C166.256 537.472 168.56 537.688 168.488 538.84     C167.984 545.248 181.664 542.152 180.152 546.832 z"
         id="path67" />
    </g>
    <g
       transform="translate(98.9154 -217.691)"
       style="fill-opacity:1;fill:#000000"
       id="g68">
      <path
         style="fill:#000000;fill-opacity:1"
         d="M151.568 705.376 C151.64 708.328 148.76 707.68 148.544 705.592 C140.192 680.536 143.72     618.832 151.856 598.96 C152.432 596.08 156.248 596.944 155.744 598.96     C147.104 635.464 147.248 673.048 151.568 705.376 z"
         id="path69" />
    </g>
    <g
       transform="translate(98.9154 -217.691)"
       style="fill:#000000;fill-opacity:1"
       id="g70">
      <path
         style="fill:#000000;fill-opacity:1"
         d="M51.704 684.424 C75.68 707.824 91.376 743.248 114.632 775.288 C148.472 816.04 121.472     858.304 66.464 845.56 C38.888 835.192 -0.784 836.344 -32.68 825.832 C-55.072     820.36 -55.864 809.272 -44.416 787.6 C-40.384 773.776 -40.024 751.312     -43.768 732.592 C-45.784 718.408 -39.232 710.488 -24.112 708.832 L-24.112 708.832     C-11.296 708.688 6.56 713.872 16.28 686.44 C23.552 673.336 40.976 672.976     51.704 684.424 z"
         id="path71" />
    </g>
    <g
       transform="translate(98.9154 -217.691)"
       style="fill:#000000;fill-opacity:1"
       id="g72">
      <path
         style="fill:#000000;fill-opacity:1"
         d="M24.632 699.04 C23.84 680.968 39.32 677.296 49.688 688.312 C68.192 710.992 85.112     736.048 100.376 764.992 C124.712 804.16 104.624 842.68 67.904 828.064 C49.688     817.84 6.128 813.304 -17.344 809.128 C-33.04 807.832 -35.128 797.608 -29.152     791.848 C-20.944 782.416 -20.08 759.808 -27.856 740.512 C-35.56 728.56 -21.088     715.384 -9.712 720.856 C0.8 727.048 25.64 713.08 24.632 699.04 z"
         id="path73" />
    </g>
  </g>
</svg>
