<?xml version="1.0"?>
<!DOCTYPE svg PUBLIC "-//W3C//DTD SVG 20010904//EN"
"http://www.w3.org/TR/2001/REC-SVG-20010904/DTD/svg10.dtd">
<svg transform="scale(.8125) translate(19.69,19.69)">
  <path
     style="fill:#276eb0;stroke:none"
     d="M 0 0 C 1.08021 0.246551 0.762403 1.52281 0 2 C -1.61026 3.00786 -3.51041 1.56445 -4 0 C -4.86654 -2.76894 -2.6565 -5.44577 0 -6 C 3.87403 -6.80825 7.41403 -3.74481 8 0 C 8.77753 4.96904 4.83317 9.39499 0 10 C -6.06102 10.7587 -11.3823 5.92184 -12 0 C -12.7461 -7.15182 -7.01075 -13.3731 0 -14 C 8.24206 -14.737 15.3663 -8.09982 16 0
	C  16 -8.832 8.832 -16 0 -16
	C -8.09982 -15.3663 -14.737 -8.24206 -14 0
	C -13.3731 7.01075 -7.15182 12.7461 0 12
	C 5.92184 11.3823 10.7587 6.06102 10 0
	C 9.39499 -4.83317 4.96904 -8.77753 0 -8
	C -3.74481 -7.41403 -6.80825 -3.87403 -6 0
	C -5.44577 2.6565 -2.76894 4.86654 0 4
	C 1.56445 3.51041 3.00786 1.61026 2 0
	C 1.52281 -0.762403 0.246551 -1.08021 0 0"/>
  <path
     style="fill:#7fc428;stroke:none"
     transform="rotate(90)"
     d="M 0 0 C 1.08021 0.246551 0.762403 1.52281 0 2 C -1.61026 3.00786 -3.51041 1.56445 -4 0 C -4.86654 -2.76894 -2.6565 -5.44577 0 -6 C 3.87403 -6.80825 7.41403 -3.74481 8 0 C 8.77753 4.96904 4.83317 9.39499 0 10 C -6.06102 10.7587 -11.3823 5.92184 -12 0 C -12.7461 -7.15182 -7.01075 -13.3731 0 -14 C 8.24206 -14.737 15.3663 -8.09982 16 0
	C  16 -8.832 8.832 -16 0 -16
	C -8.09982 -15.3663 -14.737 -8.24206 -14 0
	C -13.3731 7.01075 -7.15182 12.7461 0 12
	C 5.92184 11.3823 10.7587 6.06102 10 0
	C 9.39499 -4.83317 4.96904 -8.77753 0 -8
	C -3.74481 -7.41403 -6.80825 -3.87403 -6 0
	C -5.44577 2.6565 -2.76894 4.86654 0 4
	C 1.56445 3.51041 3.00786 1.61026 2 0
	C 1.52281 -0.762403 0.246551 -1.08021 0 0"/>
  <path
     style="fill:#d0282e;stroke:none"
     transform="rotate(180)"
     d="M 0 0 C 1.08021 0.246551 0.762403 1.52281 0 2 C -1.61026 3.00786 -3.51041 1.56445 -4 0 C -4.86654 -2.76894 -2.6565 -5.44577 0 -6 C 3.87403 -6.80825 7.41403 -3.74481 8 0 C 8.77753 4.96904 4.83317 9.39499 0 10 C -6.06102 10.7587 -11.3823 5.92184 -12 0 C -12.7461 -7.15182 -7.01075 -13.3731 0 -14 C 8.24206 -14.737 15.3663 -8.09982 16 0
	C  16 -8.832 8.832 -16 0 -16
	C -8.09982 -15.3663 -14.737 -8.24206 -14 0
	C -13.3731 7.01075 -7.15182 12.7461 0 12
	C 5.92184 11.3823 10.7587 6.06102 10 0
	C 9.39499 -4.83317 4.96904 -8.77753 0 -8
	C -3.74481 -7.41403 -6.80825 -3.87403 -6 0
	C -5.44577 2.6565 -2.76894 4.86654 0 4
	C 1.56445 3.51041 3.00786 1.61026 2 0
	C 1.52281 -0.762403 0.246551 -1.08021 0 0"/>
  <path
     style="fill:#d1c329;stroke:none"
     transform="rotate(270)"
     d="M 0 0 C 1.08021 0.246551 0.762403 1.52281 0 2 C -1.61026 3.00786 -3.51041 1.56445 -4 0 C -4.86654 -2.76894 -2.6565 -5.44577 0 -6 C 3.87403 -6.80825 7.41403 -3.74481 8 0 C 8.77753 4.96904 4.83317 9.39499 0 10 C -6.06102 10.7587 -11.3823 5.92184 -12 0 C -12.7461 -7.15182 -7.01075 -13.3731 0 -14 C 8.24206 -14.737 15.3663 -8.09982 16 0
	C  16 -8.832 8.832 -16 0 -16
	C -8.09982 -15.3663 -14.737 -8.24206 -14 0
	C -13.3731 7.01075 -7.15182 12.7461 0 12
	C 5.92184 11.3823 10.7587 6.06102 10 0
	C 9.39499 -4.83317 4.96904 -8.77753 0 -8
	C -3.74481 -7.41403 -6.80825 -3.87403 -6 0
	C -5.44577 2.6565 -2.76894 4.86654 0 4
	C 1.56445 3.51041 3.00786 1.61026 2 0
	C 1.52281 -0.762403 0.246551 -1.08021 0 0"/>
</svg>

