<?xml version="1.0" encoding="utf-8"?>
<!-- Generator: Adobe Illustrator 10.0, SVG Export Plug-In . SVG Version: 3.0.0 Build 76)  -->
<!DOCTYPE svg PUBLIC "-//W3C//DTD SVG 1.0//EN"    "http://www.w3.org/TR/2001/REC-SVG-20010904/DTD/svg10.dtd" [
	<!ENTITY ns_flows "http://ns.adobe.com/Flows/1.0/">
	<!ENTITY ns_svg "http://www.w3.org/2000/svg">
	<!ENTITY ns_xlink "http://www.w3.org/1999/xlink">
]>
<svg  xmlns="&ns_svg;" xmlns:xlink="&ns_xlink;" xmlns:a="http://ns.adobe.com/AdobeSVGViewerExtensions/3.0/"
	 width="32" height="32" viewBox="0 0 32 32" overflow="visible" enable-background="new 0 0 32 32" xml:space="preserve">
	<g id="Layer_1">
		<g>
			<path fill="#7FC428" d="M15.683,5.233L4.703,27.225h22.003L15.683,5.233z"/>
			<path opacity="0.5" fill="none" stroke="#CCCCCC" stroke-width="0.4547" d="M15.684,5.233L4.838,27.225H26.57L15.684,5.233z"/>
			<path opacity="0.5" fill="none" stroke="#999999" stroke-width="0.4706" d="M15.685,4.791L4.391,27.418h22.628L15.685,4.791z"/>
			<path opacity="0.5" fill="none" stroke="#CCCCCC" stroke-width="0.5" d="M15.684,4.094l-12,24.041h24.041L15.684,4.094z"/>
			<path opacity="0.5" fill="none" stroke="#999999" stroke-width="0.5" d="M15.685,4.33L3.925,27.891h23.561L15.685,4.33z"/>
			<path opacity="0.5" fill="none" stroke="#666666" stroke-width="0.25" d="M15.685,4.563L4.16,27.652H27.25L15.685,4.563z"/>
			<path opacity="0.2" fill="none" stroke="#000000" stroke-width="0.2361" d="M15.685,6.399L5.65,26.75h20.109L15.685,6.399z"/>
			<path fill="#FFFFFF" stroke="#A3A2A2" stroke-width="0.4" d="M15.707,10.422l1.227,3.688l1.965-1.598l0.278,2.518l3.461-1.766
				l-1.739,3.474l2.519,0.261l-1.582,1.977l3.695,1.199L21.844,21.4l1.597,1.965l-2.518,0.279l1.767,3.461l-3.474-1.74l-0.261,2.52
				l-1.977-1.583l-1.199,3.696l-1.227-3.688l-1.965,1.598l-0.278-2.518l-3.461,1.766l1.74-3.474l-2.519-0.261l1.583-1.977
				l-3.696-1.199l3.687-1.227l-1.597-1.965l2.517-0.279l-1.766-3.461l3.474,1.74l0.26-2.52l1.977,1.582L15.707,10.422z"/>
			<path fill="#7FC428" stroke="#A3A2A2" stroke-width="0.2315" d="M20.085,20.21c0,2.397-1.945,4.341-4.342,4.341
				c-2.397,0-4.342-1.943-4.342-4.341s1.944-4.341,4.342-4.341C18.14,15.869,20.085,17.813,20.085,20.21z"/>
		</g>
		<path fill="none" d="M32,32H0V0h32V32z"/>
	</g>
</svg>
